<svg width="455" height="455" viewBox="0 0 455 455" fill="none" xmlns="http://www.w3.org/2000/svg">
<path d="M370.258 127.586C360.663 127.586 351.051 129.706 341.913 133.014C338.441 133.964 335.023 134.841 331.478 135.609C317.699 138.844 303.554 140.726 288.532 139.977H288.477C287.125 139.922 285.772 139.867 284.42 139.739C287.307 125.959 288.13 112.216 286.887 98.8563C283.122 61.3908 260.205 43.4074 223.546 52.1981L224.788 56.3832C258.542 48.4332 278.992 63.456 282.702 98.0338C284 111.357 283.122 125.557 280.235 139.282C259.383 136.815 239.408 133.032 219.781 128.92C193.556 123.492 167.697 118.485 143.136 118.485C59.7648 117.662 20.583 170.973 21.0033 222.236C21.4237 259.775 41.4531 288.925 71.4425 303.07L81.0369 307.256C91.8192 311.021 103.552 313.086 115.613 313.086C135.588 313.086 154.795 308.078 172.284 299.361L177.474 296.528L213.878 406H219.416L255.198 303.198C256.843 303.71 258.488 304.204 260.224 304.679C262.983 305.428 268.557 306.835 268.557 306.835C346.098 323.923 429.816 288.103 434.824 204.728C437.364 163.078 412.309 125.959 370.258 127.604V127.586ZM172.357 294.024L166.875 296.802C151.03 304.35 133.523 308.882 115.211 308.882C104.374 308.882 94.7614 307.237 85.9894 304.35L80.9821 302.23L75.2071 299.763C49.348 285.983 33.9055 258.057 33.9055 225.179C33.9055 175.158 69.3774 123.492 143.556 122.597C168.117 122.597 193.154 127.604 219.379 133.032C239.006 136.797 258.561 140.982 279.412 143.047C269.105 191.186 238.769 246.086 196.279 278.965L160.807 172.435C158.212 164.96 157.207 159.112 157.207 154.287C157.207 143.614 163.037 139.739 169.872 139.739V134.841H105.361V139.739C117.386 139.739 128.406 148.11 137.123 175.322L176.012 292.215L172.357 294.042V294.024ZM197.76 283.424C241.766 249.833 273.053 193.635 283.598 143.851C287.728 144.199 291.785 144.381 295.787 144.327C297.724 146.867 298.784 150.577 298.784 155.584C298.784 160.117 297.779 165.947 295.549 173.074L226.853 370.984L197.741 283.424H197.76ZM415.671 204.29C410.7 285.197 345.586 318.66 271.426 303.436C268.027 302.705 264.591 301.883 261.247 300.969C259.602 300.512 258.049 300.037 256.477 299.562L300.74 172.435C307.629 154.524 314.354 145.569 321.829 141.969C322.176 141.914 322.542 141.859 322.889 141.786L323.126 141.731L331.442 139.721H331.496L356.588 133.653L357.886 133.361C362.601 132.301 367.133 131.771 371.5 131.771C406.918 130.949 417.755 165.527 415.69 204.308L415.671 204.29Z" fill="url(#paint0_linear_45_58)"/>
<defs>
<linearGradient id="paint0_linear_45_58" x1="-114.415" y1="8.48227" x2="950.644" y2="668.948" gradientUnits="userSpaceOnUse">
<stop stop-color="#F3D399"/>
<stop offset="0.1" stop-color="#BF9355"/>
<stop offset="0.23" stop-color="#FFE2AB"/>
<stop offset="0.45" stop-color="#BA8E51"/>
<stop offset="0.67" stop-color="#FFE2AB"/>
<stop offset="0.79" stop-color="#C69B5E"/>
<stop offset="0.91" stop-color="#FFE2AB"/>
<stop offset="1" stop-color="#D8B175"/>
</linearGradient>
</defs>
</svg>
