<svg width="1069" height="918" viewBox="0 0 1069 918" fill="none" xmlns="http://www.w3.org/2000/svg">
<path d="M901.828 200.067C877.054 200.067 852.233 205.534 828.638 214.064C819.672 216.514 810.848 218.776 801.694 220.756C766.114 229.097 729.59 233.951 690.801 232.019H690.659C687.167 231.878 683.675 231.736 680.183 231.406C687.639 195.873 689.763 160.433 686.554 125.983C676.833 29.3729 617.659 -17.0001 522.999 5.66803L526.207 16.4601C613.364 -4.04013 666.168 34.6983 675.748 123.863C679.098 158.218 676.833 194.836 669.377 230.228C615.535 223.866 563.958 214.111 513.278 203.507C445.562 189.511 378.791 176.598 315.369 176.598C100.095 174.477 -1.0767 311.947 0.00863784 444.138C1.09397 540.937 52.8126 616.104 130.249 652.581L155.023 663.373C182.864 673.081 213.159 678.406 244.303 678.406C295.88 678.406 345.476 665.493 390.635 643.014L404.036 635.709L498.036 918H512.334L604.729 652.911C608.976 654.23 613.223 655.503 617.706 656.728C624.831 658.66 639.224 662.289 639.224 662.289C839.445 706.353 1055.61 613.984 1068.54 398.99C1075.1 291.588 1010.41 195.873 901.828 200.114V200.067ZM390.824 629.253L376.667 636.416C335.755 655.88 290.548 667.567 243.265 667.567C215.282 667.567 190.461 663.326 167.811 655.88L154.881 650.413L139.97 644.051C73.198 608.517 33.3237 536.507 33.3237 451.725C33.3237 322.739 124.917 189.511 316.455 187.201C379.876 187.201 444.524 200.114 512.24 214.111C562.92 223.819 613.412 234.611 667.254 239.936C640.639 364.069 562.306 505.639 452.593 590.42L361.001 315.717C354.3 296.442 351.704 281.361 351.704 268.92C351.704 241.397 366.758 231.406 384.406 231.406V218.776H217.831V231.406C248.881 231.406 277.335 252.991 299.844 323.163L400.261 624.587L390.824 629.3V629.253ZM456.416 601.919C570.046 515.3 650.832 370.384 678.06 242.01C688.724 242.905 699.2 243.377 709.535 243.235C714.537 249.786 717.274 259.353 717.274 272.266C717.274 283.953 714.678 298.987 708.921 317.366L531.54 827.705L456.368 601.919H456.416ZM1019.14 397.859C1006.3 606.49 838.17 692.78 646.68 653.523C637.902 651.638 629.031 649.517 620.396 647.161C616.149 645.983 612.138 644.758 608.079 643.532L722.37 315.717C740.16 269.532 757.525 246.44 776.825 237.156C777.722 237.015 778.666 236.873 779.562 236.685L780.176 236.543L801.646 231.359H801.788L866.578 215.713L869.928 214.959C882.103 212.226 893.806 210.859 905.084 210.859C996.535 208.738 1024.52 297.903 1019.19 397.906L1019.14 397.859Z" fill="#1D1D1B"/>
</svg>
