<svg width="665" height="382" viewBox="0 0 665 382" fill="none" xmlns="http://www.w3.org/2000/svg">
<g clip-path="url(#clip0_35_91)">
<path d="M8.39 260.079C6.08 252.889 3.17 250.659 0 250.659V249.369H17.04V250.659C15.24 250.659 13.7 251.689 13.7 254.509C13.7 255.789 13.96 257.329 14.64 259.299L32.11 311.779L50.26 259.469C50.86 257.589 51.12 256.049 51.12 254.849C51.12 251.849 49.66 250.659 47.7 250.659V249.369H59.77V250.659C56.69 250.659 54.21 252.629 51.64 259.309L30.15 321.039H28.69L8.4 260.079H8.39Z" fill="white"/>
<path d="M89.7202 250.581C86.7202 250.581 84.3302 251.781 84.3302 259.741V310.681C84.3302 318.561 86.7302 319.761 89.7202 319.761V321.041H72.6802V319.761C75.6802 319.761 78.1602 318.561 78.1602 310.681V259.741C78.1602 251.781 75.6802 250.581 72.6802 250.581V249.301H89.7202V250.581Z" fill="white"/>
<path d="M147.6 301.351L146.83 321.041H102.57V319.761C105.57 319.761 108.05 318.561 108.05 310.601V259.661C108.05 251.781 105.57 250.591 102.57 250.591V249.311H119.61V250.591C116.61 250.591 114.22 251.791 114.22 259.661V310.601C114.22 318.561 116.62 319.761 119.61 319.761H130.74C143.07 319.761 146.15 309.571 146.32 301.351H147.6Z" fill="white"/>
<path d="M206.93 301.351L206.16 321.041H161.9V319.761C164.9 319.761 167.38 318.561 167.38 310.601V259.661C167.38 251.781 164.9 250.591 161.9 250.591V249.311H178.94V250.591C175.94 250.591 173.55 251.791 173.55 259.661V310.601C173.55 318.561 175.95 319.761 178.94 319.761H190.07C202.4 319.761 205.48 309.571 205.65 301.351H206.93Z" fill="white"/>
<path d="M271.57 310.249C273.8 317.529 276.79 319.749 279.88 319.749V321.029H262.84V319.749C264.72 319.749 266.18 318.719 266.18 315.899C266.18 314.619 265.92 313.079 265.24 311.019L260.19 295.949H234.85L229.71 310.929C229.11 312.809 228.85 314.349 228.85 315.549C228.85 318.549 230.31 319.749 232.19 319.749V321.029H220.12V319.749C223.29 319.749 225.77 317.779 228.34 311.099L249.66 249.289H251.2L271.58 310.249H271.57ZM259.84 294.749L247.68 258.619L235.27 294.749H259.84Z" fill="white"/>
<path d="M356.33 249.289C369.09 249.289 376.45 258.279 376.45 269.409C376.45 280.539 369.09 289.529 356.33 289.529H338.52V310.589C338.52 318.549 340.92 319.749 343.91 319.749V321.029H326.96V319.749C329.87 319.749 332.35 318.549 332.35 310.589V259.649C332.35 251.769 329.87 250.579 326.96 250.579V249.299H356.32L356.33 249.289ZM351.36 250.579H343.91C340.91 250.579 338.52 251.779 338.52 259.649V288.239H351.36C363.43 288.239 370.28 279.849 370.28 269.409C370.28 258.969 363.43 250.579 351.36 250.579Z" fill="white"/>
<path d="M453.5 285.171C453.5 304.951 443.74 321.381 422.85 321.381C401.96 321.381 392.2 304.941 392.2 285.171C392.2 265.401 401.87 248.961 422.85 248.961C443.83 248.961 453.5 265.401 453.5 285.171ZM446.99 285.171C446.99 266.081 438.51 250.151 422.85 250.151C407.19 250.151 398.62 266.071 398.62 285.171C398.62 304.271 407.1 320.181 422.85 320.181C438.6 320.181 446.99 304.261 446.99 285.171Z" fill="white"/>
<path d="M518.91 269.071H517.71C517.45 260.771 514.37 250.581 502.13 250.581H501.1C498.1 250.581 495.71 251.781 495.71 259.741V310.681C495.71 318.641 498.11 319.841 501.1 319.841V321.041H484.06V319.841C487.06 319.841 489.45 318.641 489.45 310.681V259.741C489.45 251.781 487.05 250.581 484.06 250.581H483.03C470.79 250.581 467.7 260.771 467.53 269.071H466.25L467.02 249.381H518.22L518.9 269.071H518.91Z" fill="white"/>
<path d="M592.97 285.17C592.97 304.95 583.21 321.38 562.32 321.38C541.43 321.38 531.67 304.94 531.67 285.17C531.67 265.4 541.34 248.96 562.32 248.96C583.3 248.96 592.97 265.4 592.97 285.17ZM586.46 285.17C586.46 266.08 577.98 250.15 562.32 250.15C546.66 250.15 538.09 266.07 538.09 285.17C538.09 304.27 546.57 320.18 562.32 320.18C578.07 320.18 586.46 304.26 586.46 285.17ZM569.77 245.96L562.49 241.25L555.21 245.96H554.18L562.49 238.85L570.79 245.96H569.76H569.77Z" fill="white"/>
<path d="M664.37 249.289V250.569C661.37 250.569 658.98 251.769 658.98 259.639V321.019H657.52L612.49 256.129V310.579C612.49 314.599 613.09 316.919 614.03 318.199C615.06 319.489 616.43 319.739 617.88 319.739V321.019H605.81V319.739C608.81 319.739 611.2 318.539 611.2 310.579V259.639C611.2 255.699 610.6 253.389 609.66 252.109C608.63 250.829 607.26 250.569 605.81 250.569V249.289H615.31L657.69 310.419V259.649C657.69 255.709 657.09 253.399 656.15 252.119C655.12 250.839 653.75 250.579 652.3 250.579V249.299H664.37V249.289Z" fill="white"/>
<path d="M410.03 42.4703C404.78 42.4703 399.52 43.6303 394.52 45.4403C392.62 45.9603 390.75 46.4403 388.81 46.8603C381.27 48.6303 373.53 49.6603 365.31 49.2503H365.28C364.54 49.2203 363.8 49.1903 363.06 49.1203C364.64 41.5803 365.09 34.0603 364.41 26.7503C362.35 6.25029 349.81 -3.58971 329.75 1.22029L330.43 3.51029C348.9 -0.839708 360.09 7.38029 362.12 26.3003C362.83 33.5903 362.35 41.3603 360.77 48.8703C349.36 47.5203 338.43 45.4503 327.69 43.2003C313.34 40.2303 299.19 37.4903 285.75 37.4903C240.13 37.0403 218.69 66.2103 218.92 94.2603C219.15 114.8 230.11 130.75 246.52 138.49L251.77 140.78C257.67 142.84 264.09 143.97 270.69 143.97C281.62 143.97 292.13 141.23 301.7 136.46L304.54 134.91L324.46 194.81H327.49L347.07 138.56C347.97 138.84 348.87 139.11 349.82 139.37C351.33 139.78 354.38 140.55 354.38 140.55C396.81 149.9 442.62 130.3 445.36 84.6803C446.75 61.8903 433.04 41.5803 410.03 42.4803V42.4703ZM301.74 133.54L298.74 135.06C290.07 139.19 280.49 141.67 270.47 141.67C264.54 141.67 259.28 140.77 254.48 139.19L251.74 138.03L248.58 136.68C234.43 129.14 225.98 113.86 225.98 95.8703C225.98 68.5003 245.39 40.2303 285.98 39.7403C299.42 39.7403 313.12 42.4803 327.47 45.4503C338.21 47.5103 348.91 49.8003 360.32 50.9303C354.68 77.2703 338.08 107.31 314.83 125.3L295.42 67.0103C294 62.9203 293.45 59.7203 293.45 57.0803C293.45 51.2403 296.64 49.1203 300.38 49.1203V46.4403H265.08V49.1203C271.66 49.1203 277.69 53.7003 282.46 68.5903L303.74 132.55L301.74 133.55V133.54ZM315.64 127.74C339.72 109.36 356.84 78.6103 362.61 51.3703C364.87 51.5603 367.09 51.6603 369.28 51.6303C370.34 53.0203 370.92 55.0503 370.92 57.7903C370.92 60.2703 370.37 63.4603 369.15 67.3603L331.56 175.65L315.63 127.74H315.64ZM434.89 84.4403C432.17 128.71 396.54 147.02 355.96 138.69C354.1 138.29 352.22 137.84 350.39 137.34C349.49 137.09 348.64 136.83 347.78 136.57L372 67.0103C375.77 57.2103 379.45 52.3103 383.54 50.3403C383.73 50.3103 383.93 50.2803 384.12 50.2403L384.25 50.2103L388.8 49.1103H388.83L402.56 45.7903L403.27 45.6303C405.85 45.0503 408.33 44.7603 410.72 44.7603C430.1 44.3103 436.03 63.2303 434.9 84.4503L434.89 84.4403Z" fill="white"/>
<path d="M134.61 369.979C134.61 373.729 131.89 375.999 127.41 375.999H122.67V381.569H120.81V363.939H127.41C131.89 363.939 134.61 366.209 134.61 369.989V369.979ZM132.74 369.979C132.74 367.159 130.88 365.549 127.35 365.549H122.67V374.369H127.35C130.88 374.369 132.74 372.759 132.74 369.989V369.979Z" fill="white"/>
<path d="M156.15 379.959V381.569H143.68V363.939H155.77V365.549H145.54V371.819H154.66V373.409H145.54V379.959H156.14H156.15Z" fill="white"/>
<path d="M180.3 363.93V381.56H178.76L167.42 367.25V381.56H165.56V363.93H167.1L178.46 378.24V363.93H180.3Z" fill="white"/>
<path d="M203.81 379.96V381.57H189.35V380.28L201.04 365.54H189.53V363.93H203.51V365.22L191.85 379.96H203.82H203.81Z" fill="white"/>
<path d="M212.52 363.93H214.38V381.56H212.52V363.93Z" fill="white"/>
<path d="M223.61 372.749C223.61 367.609 227.54 363.779 232.88 363.779C238.22 363.779 242.13 367.579 242.13 372.749C242.13 377.919 238.17 381.719 232.88 381.719C227.59 381.719 223.61 377.889 223.61 372.749ZM240.26 372.749C240.26 368.539 237.11 365.439 232.88 365.439C228.65 365.439 225.45 368.539 225.45 372.749C225.45 376.959 228.62 380.059 232.88 380.059C237.14 380.059 240.26 376.959 240.26 372.749Z" fill="white"/>
<path d="M266.08 363.93V381.56H264.54L253.2 367.25V381.56H251.34V363.93H252.88L264.24 378.24V363.93H266.08Z" fill="white"/>
<path d="M287.14 373.961H293.74V375.521H287.14V373.961Z" fill="white"/>
<path d="M326.84 381.569L322.81 375.899C322.36 375.949 321.9 375.979 321.4 375.979H316.66V381.569H314.8V363.939H321.4C325.88 363.939 328.6 366.209 328.6 369.989C328.6 372.759 327.14 374.699 324.57 375.529L328.88 381.579H326.84V381.569ZM326.74 369.979C326.74 367.159 324.88 365.549 321.35 365.549H316.67V374.389H321.35C324.88 374.389 326.74 372.749 326.74 369.979Z" fill="white"/>
<path d="M350.52 379.959V381.569H338.05V363.939H350.14V365.549H339.91V371.819H349.03V373.409H339.91V379.959H350.51H350.52Z" fill="white"/>
<path d="M371.37 376.911C371.37 379.511 369.31 381.721 364.8 381.721C362.15 381.721 359.56 380.791 358.25 379.431L358.98 377.991C360.24 379.221 362.48 380.131 364.8 380.131C368.1 380.131 369.54 378.741 369.54 377.011C369.54 372.171 358.68 375.151 358.68 368.621C358.68 366.021 360.7 363.781 365.18 363.781C367.17 363.781 369.24 364.361 370.65 365.341L370.02 366.831C368.51 365.851 366.75 365.371 365.18 365.371C361.96 365.371 360.52 366.811 360.52 368.571C360.52 373.411 371.38 370.481 371.38 376.911H371.37ZM364.25 362.501L361 359.381H362.66L365.15 361.451L367.64 359.381H369.3L366.05 362.501H364.24H364.25Z" fill="white"/>
<path d="M383.64 365.549H377.44V363.939H391.7V365.549H385.5V381.569H383.64V365.549Z" fill="white"/>
<path d="M409.89 376.859H400.07L397.95 381.569H396.01L404.07 363.939H405.91L413.97 381.569H412.01L409.89 376.859ZM409.21 375.349L404.98 365.879L400.75 375.349H409.21Z" fill="white"/>
<path d="M421.4 374.039V363.939H423.26V373.969C423.26 378.149 425.22 380.069 428.65 380.069C432.08 380.069 434.07 378.159 434.07 373.969V363.939H435.88V374.039C435.88 379.099 433.16 381.719 428.65 381.719C424.14 381.719 421.4 379.099 421.4 374.039Z" fill="white"/>
<path d="M458.58 381.569L454.55 375.899C454.1 375.949 453.64 375.979 453.14 375.979H448.4V381.569H446.54V363.939H453.14C457.62 363.939 460.34 366.209 460.34 369.989C460.34 372.759 458.88 374.699 456.31 375.529L460.62 381.579H458.58V381.569ZM458.48 369.979C458.48 367.159 456.62 365.549 453.09 365.549H448.41V374.389H453.09C456.62 374.389 458.48 372.749 458.48 369.979Z" fill="white"/>
<path d="M480.85 376.861H471.03L468.91 381.571H466.97L475.03 363.941H476.87L484.93 381.571H482.97L480.85 376.861ZM480.17 375.351L475.94 365.881L471.71 375.351H480.17ZM476.09 362.501H474.33L477.78 359.381H480.17L476.09 362.501Z" fill="white"/>
<path d="M491.08 372.749C491.08 367.589 495.01 363.779 500.32 363.779C502.89 363.779 505.21 364.639 506.77 366.349L505.59 367.529C504.15 366.069 502.39 365.439 500.37 365.439C496.11 365.439 492.91 368.559 492.91 372.749C492.91 376.939 496.11 380.059 500.37 380.059C502.39 380.059 504.15 379.429 505.59 377.939L506.77 379.119C505.21 380.829 502.89 381.709 500.3 381.709C495.01 381.709 491.08 377.909 491.08 372.739V372.749Z" fill="white"/>
<path d="M515.79 363.93H517.65V381.56H515.79V363.93Z" fill="white"/>
<path d="M539.5 376.859H529.68L527.56 381.569H525.62L533.68 363.939H535.52L543.58 381.569H541.62L539.5 376.859ZM538.82 375.349L534.59 365.879L530.36 375.349H538.82Z" fill="white"/>
<path d="M644.59 234.58L635.6 243.83L626.61 234.58L635.6 239.89L644.59 234.58Z" fill="white"/>
</g>
<defs>
<clipPath id="clip0_35_91">
<rect width="664.37" height="381.72" fill="white"/>
</clipPath>
</defs>
</svg>
